# xmcd
#
# Track frame offsets: 
#        150
#        21192
#        37420
#        54170
#        77170
#        95030
#        113315
#        138797
#        151785
#        172835
#        203267
#        226282
#        249672
#        273090
#        289782
#        310940
#
# Disc length: 4372 seconds
#
# Revision: 1
# Processed by: cddbd v1.5.2PL0 Copyright (c) Steve Scherf et al.
# Submitted via: ExactAudioCopy v1.0b1
#
DISCID=c3111210
DTITLE=Various Artist - Descarga Salsera
DYEAR=2000
DGENRE=Salsa
TTITLE0=Ricardo Ray Y Bobby Cruz - Pancho Cristal
TTITLE1=Alfredo Linares - Tiahuanaco
TTITLE2=Oscar D Leon - Lloraras
TTITLE3=Nelson Y Sus Estrellas - Londres
TTITLE4=Sexteto Juventud - La Ley
TTITLE5=Bonny Cepeda - Penas
TTITLE6=Angel Canales - Nostalgia
TTITLE7=Los Jovenes De Hierro - Ritmo Sabroso
TTITLE8=Ray Barreto - Bilongo
TTITLE9=Henry Fiol - Mala Suerte
TTITLE10=Charanga America - Julio El Gitano
TTITLE11=Jose Mangual Jr - Campana Mayoral
TTITLE12=Roberto Torres - Para Que Aprendas
TTITLE13=Joe Quijano - Yo Soy El Son Cubano
TTITLE14=Andy Harlow - El Primer Montuno
TTITLE15=Cuco Valoy - Amor Para Mi
EXTD=YEAR: 2000
EXTT0=
EXTT1=
EXTT2=
EXTT3=
EXTT4=
EXTT5=
EXTT6=
EXTT7=
EXTT8=
EXTT9=
EXTT10=
EXTT11=
EXTT12=
EXTT13=
EXTT14=
EXTT15=
PLAYORDER=
